# xmcd CD database file
#
# Track frame offsets:
#	150
#	10635
#	22547
#	34107
#	44991
#	55901
#	68283
#	78512
#	88536
#	98370
#	112196
#	125449
#	135109
#	144821
#	154664
#	167650
#	179627
#	190638
#	198660
#	212100
#	223088
#	236215
#	249660
#	262252
#	271319
#	282715
#	291808
#	303372
#	313668
#	323366
#
# Disc length: 4437 seconds
#
# Revision: 0
# Processed by: cddbd v1.5.1PL0 Copyright (c) Steve Scherf et al.
# Submitted via: CDex 1.51
#
DISCID=ab11531e
DTITLE=Maddox Brothers and Rose - That'll Learn Ya Durn Ya
DYEAR=2004
DGENRE=Country
TTITLE0=That'll Learn Ya Durn Ya
TTITLE1=Mean and Wicked Boogie
TTITLE2=Whao Sailor
TTITLE3=Honky Tonkin'
TTITLE4=It's Only Human Nature
TTITLE5=Move It On  Over
TTITLE6=Sally Let Your Bangs Hang Down
TTITLE7=Oklahoma Sweetheart Sally Anne
TTITLE8=I Wish I Was A Single Girl Again
TTITLE9=Philadelphia Lawyer
TTITLE10=Why Don't You Haul Off And Love Me
TTITLE11=Shimmy Shakkin' Daddy
TTITLE12=Choc'late Ice Cream Cone
TTITLE13=(Pay Me) Alimony
TTITLE14=Mama Says It's Naughty
TTITLE15=Hangover Blues
TTITLE16=Gosh I Miss You  All The Time
TTITLE17=Texas Guitar Stomp
TTITLE18=Small Town Mama
TTITLE19=New Step It Up and Go
TTITLE20=I Couldn't Believe It Was True
TTITLE21=New Mule Skinner Blues
TTITLE22=Detour No. 2
TTITLE23=Sugar Pie
TTITLE24=Why Not Confess
TTITLE25=Eight Thirty Blues
TTITLE26=Cocquita Of Laredo
TTITLE27=The Hiccough Song
TTITLE28=No Help Wanted
TTITLE29=Kiss Me Quick And Go
EXTD=YEAR: 2004
EXTT0=
EXTT1=
EXTT2=
EXTT3=
EXTT4=
EXTT5=
EXTT6=
EXTT7=
EXTT8=
EXTT9=
EXTT10=
EXTT11=
EXTT12=
EXTT13=
EXTT14=
EXTT15=
EXTT16=
EXTT17=
EXTT18=
EXTT19=
EXTT20=
EXTT21=
EXTT22=
EXTT23=
EXTT24=
EXTT25=
EXTT26=
EXTT27=
EXTT28=
EXTT29=
PLAYORDER=
